<svg version="1.2" baseProfile="tiny-ps" xmlns="http://www.w3.org/2000/svg" viewBox="0 0 352 512" width="352" height="512">
	<title>times-solid-svg</title>
	<style>
		tspan { white-space:pre }
		.shp0 { fill: #8c8c8c } 
	</style>
	<path id="Layer" class="shp0" d="M342.79 356.07C355.07 368.36 355.07 388.27 342.79 400.55L320.55 422.79C308.27 435.07 288.35 435.07 276.07 422.79L176 322.72L75.93 422.79C63.65 435.07 43.73 435.07 31.45 422.79L9.21 400.55C-3.07 388.26 -3.07 368.35 9.21 356.07L109.28 256L9.21 155.93C-3.07 143.64 -3.07 123.73 9.21 111.45L31.45 89.21C43.74 76.93 63.65 76.93 75.93 89.21L176 189.28L276.07 89.21C288.36 76.93 308.27 76.93 320.55 89.21L342.79 111.45C355.07 123.74 355.07 143.65 342.79 155.93L242.72 256L342.79 356.07Z" />
</svg>